<svg width="445" height="91" viewBox="0 0 445 91" fill="none" xmlns="http://www.w3.org/2000/svg">
<path d="M423.714 26.8C427.163 26.8001 430.188 27.5942 432.748 29.2238C435.328 30.7702 437.305 32.8069 438.651 35.3312L438.906 35.7932C440.14 38.1094 440.764 40.5476 440.764 43.0959C440.764 46.2407 439.803 49.1941 437.917 51.9377C436.533 53.9809 434.696 55.6194 432.431 56.8605C435.465 58.002 437.972 59.7218 439.921 62.0412L440.156 62.3137C442.544 65.15 443.737 68.506 443.737 72.3351C443.737 75.6494 442.741 78.5764 440.743 81.0724C438.773 83.5331 436.117 85.4288 432.817 86.7785C429.577 88.1309 426.009 88.8 422.128 88.8H387.737V26.8H423.714ZM398.654 80.2082H422.128C424.156 80.2082 425.934 79.7646 427.487 78.8986L427.501 78.8908C429.154 78.0031 430.408 76.8729 431.298 75.508L431.304 75.4973C432.257 74.0752 432.72 72.5764 432.72 70.9826C432.72 69.3123 432.278 67.7788 431.387 66.3605L431.38 66.3469L431.372 66.3342C430.538 64.9123 429.377 63.7659 427.868 62.8908L427.861 62.8859L427.853 62.881C426.445 62.0303 424.779 61.5891 422.821 61.5891H398.654V80.2082ZM398.654 53.4201H420.048C422.016 53.42 423.689 53.0012 425.101 52.1984L425.109 52.1935L425.117 52.1896C426.623 51.3676 427.777 50.2762 428.605 48.9142L428.614 48.9006L428.622 48.8879C429.508 47.5279 429.946 46.055 429.946 44.4474C429.946 42.7005 429.527 41.1996 428.714 39.9113L428.7 39.8908L428.688 39.8693C427.922 38.513 426.834 37.4285 425.399 36.6125L425.39 36.6086L425.382 36.6037C424.036 35.8048 422.466 35.3918 420.641 35.3918H398.654V53.4201Z" fill="#0D1014" stroke="#0D1014" stroke-width="2"/>
<path d="M229.356 1.59998V79.3597H278.556V88.8002H218.956V1.59998H229.356Z" fill="#0D1014" stroke="#0D1014" stroke-width="2"/>
<path d="M141.38 26.8L141.679 27.1476L162.287 51.1115L182.895 27.1476L183.194 26.8H195.932L194.492 28.4562L168.603 58.2228L193.694 87.1447L195.13 88.8H182.394L182.095 88.4504L162.287 65.3361L142.479 88.4504L142.179 88.8H129.344L130.78 87.1447L155.87 58.2238L129.982 28.4562L128.542 26.8H141.38Z" fill="#0D1014" stroke="#0D1014" stroke-width="2"/>
<path d="M107.237 26.8V88.8H97.237V26.8H107.237Z" fill="#0D1014" stroke="#0D1014" stroke-width="2"/>
<path d="M36.0574 1C39.8877 1.00003 43.4499 1.40724 46.7391 2.22949H46.7381C50.0834 2.96612 53.1567 4.07184 55.9529 5.55078H55.9539C58.8323 7.0311 61.5034 8.88066 63.9656 11.0967L64.5818 11.6504L64.1522 12.3594L60.0721 19.0791L59.366 20.2412L58.4676 19.2217C57.3306 17.9331 55.9995 16.792 54.4715 15.7988L54.4578 15.7891L54.4432 15.7793C52.9123 14.7077 51.1816 13.7831 49.2459 13.0088C47.3057 12.2327 45.2023 11.6089 42.9344 11.1396L42.9276 11.1377C40.764 10.6741 38.4349 10.4405 35.9373 10.4404C28.5922 10.4404 23.3893 11.8681 20.1307 14.5342L20.1287 14.5352C16.9474 17.1246 15.3367 20.6668 15.3367 25.2803C15.3368 28.4797 16.0966 30.8619 17.4959 32.5479C19.0196 34.2859 21.4388 35.7675 24.8592 36.9336C28.3323 38.1176 32.7707 39.3472 38.1824 40.6211C44.3025 41.9095 49.6011 43.4446 54.0682 45.2314C58.5898 47.0401 62.1439 49.5304 64.6736 52.7305L64.9119 53.0322C67.3369 56.1899 68.4969 60.3744 68.4969 65.4805C68.4968 69.5299 67.7112 73.0963 66.1014 76.1465C64.5061 79.169 62.2791 81.6885 59.4334 83.6973C56.5989 85.698 53.2432 87.1837 49.3846 88.1689L49.3748 88.1719L49.3651 88.1738C45.5196 89.0738 41.3219 89.5195 36.7772 89.5195C32.3102 89.5195 27.9993 89.0734 23.8465 88.1777L23.8348 88.1748L23.824 88.1729C19.7548 87.1962 15.885 85.8115 12.2176 84.0186L12.202 84.0107C8.52222 82.13 5.09093 79.7599 1.909 76.9043L1.28888 76.3477L1.72443 75.6367L5.92462 68.7969L6.60529 67.6875L7.50177 68.6309C8.96489 70.171 10.7066 71.6443 12.7322 73.0479C14.8402 74.3734 17.1484 75.5856 19.658 76.6836H19.657C22.2294 77.7742 24.9617 78.6333 27.8553 79.2598C30.8281 79.8063 33.8821 80.0801 37.0174 80.0801C43.7147 80.08 48.7735 78.8557 52.3065 76.5254L52.3143 76.5195C55.8466 74.2382 57.6169 70.8881 57.617 66.3203C57.617 62.9877 56.7123 60.4517 55.0018 58.5986L54.9959 58.5918L54.9891 58.584C53.2179 56.5916 50.5054 54.9083 46.7635 53.583C42.9712 52.2399 38.29 50.9299 32.7137 49.6553L32.7127 49.6543C26.7579 48.2863 21.702 46.7519 17.5565 45.0449C13.3592 43.3166 10.1163 41.0233 7.90216 38.1279L7.8924 38.1143L7.88361 38.1016C5.72864 35.0846 4.69715 31.1816 4.69708 26.4805C4.69708 21.0343 6.0201 16.3803 8.72247 12.5801L8.72443 12.5771L8.98615 12.2197C11.7176 8.55525 15.3826 5.80312 19.949 3.95801L20.8387 3.59863C25.3278 1.85905 30.4065 1 36.0574 1Z" fill="#0D1014" stroke="#0D1014" stroke-width="2"/>
<path d="M331.602 27.298L335.469 33.965L335.476 33.9758L335.482 33.9875L364.615 87.3205L365.423 88.8H353.482L353.203 88.256L330.785 44.4689L308.27 88.257L307.991 88.8H296.048L296.86 87.3195L326.093 33.9855L326.099 33.9748L329.866 27.3078L330.725 25.7873L331.602 27.298Z" fill="#0D1014" stroke="#0D1014" stroke-width="2"/>
<path d="M342.437 89.8H318.437L330.837 66.8L342.437 89.8Z" fill="#F6B66D"/>
</svg>
